<svg xmlns="http://www.w3.org/2000/svg" viewBox="0 0 512 512">
  <defs><linearGradient id="sky" x1="0" y1="0" x2="0" y2="1"><stop stop-color="#b8d4ca"/><stop offset="1" stop-color="#486858"/></linearGradient><linearGradient id="wood" x1="0" y1="0" x2="1" y2="1"><stop stop-color="#fff1ba"/><stop offset=".55" stop-color="#d59a4e"/><stop offset="1" stop-color="#7a4023"/></linearGradient></defs>
  <rect width="512" height="512" rx="110" fill="url(#sky)"/>
  <circle cx="381" cy="130" r="46" fill="#fff0ad" opacity=".9"/><path d="M60 400c82-72 132-60 196-7 73-66 136-57 196 7v48H60Z" fill="#294a3b"/>
  <path d="M120 284 256 164l136 120v136H120Z" fill="url(#wood)" stroke="#fff1ba" stroke-width="12" stroke-linejoin="round"/><path d="M92 294 256 145l164 149" fill="none" stroke="#694027" stroke-width="27" stroke-linecap="round" stroke-linejoin="round"/><path d="M224 420v-104h64v104M153 330h43v43h-43zM316 330h43v43h-43z" fill="#31554a" stroke="#694027" stroke-width="10"/>
  <path d="m256 94 10 24 26 1-20 17 7 26-23-14-23 14 7-26-20-17 26-1Z" fill="#fff8d8"/>
</svg>
