# KayKit / Kay Lousberg, CC0. Geometry-only recolored derivative.
v -.749992 .6 .380595
v .750008 .6 .380595
v -.749992 .975 .473354
v -.749992 1.3 .380595
v .750008 1.3 .380595
v .750008 .975 .473354
v .610293 .566320 .380595
v .447376 .6 .380595
v -.447361 .556341 .380595
v -.610278 .556341 .380595
v -.610278 .975 .473354
v -.447361 .975 .473354
v .447376 .975 .473354
v .610293 .975 .473354
v .447376 1.3 .380595
v .610293 1.3 .380595
v -.610278 1.3 .380595
v -.447361 1.3 .380595
v -.223676 .6 .380595
v .000008 .531393 .380595
v .223692 .531393 .380595
v .750008 1.4 .380595
v .610293 1.4 .380595
v .447376 1.4 .380595
v .750007 3.2 .380595
v -.749993 3.2 .380595
v -.447361 3.2 .380595
v -.610278 3.2 .380595
v .610293 3.2 .380595
v .447375 3.2 .380595
v -.749992 1.4 .380595
v -.610278 1.4 .380595
v -.447361 1.4 .380595
v .750007 3.45 .510907
v -.749993 3.45 .510907
v -.447361 3.45 .510907
v -.610278 3.45 .510907
v .610293 3.45 .510907
v .447375 3.45 .510907
v .750007 3.727470 .510907
v -.749993 3.727470 .510907
v -.447361 3.727470 .510907
v -.610278 3.727470 .510907
v .610293 3.727470 .510907
v .447375 3.727470 .510907
v .370122 3.563044 .377638
v .436445 3.683063 .642927
v .505195 3.639152 .632872
v .504064 3.557791 .644496
v .434182 3.520342 .666176
v .365431 3.564253 .676231
v .366563 3.645614 .664607
v .442409 3.605910 .684692
v -.354433 3.628582 .386725
v -.438479 3.662392 .671285
v -.365728 3.626738 .685138
v -.356754 3.545845 .673658
v -.420532 3.500607 .648325
v -.493284 3.536261 .634472
v -.502257 3.617153 .645952
v -.437677 3.576375 .689528
v -.447361 2.5 .380595
v -.749993 2.5 .380595
v -.610278 2.5 .380595
v .750007 2.5 .380595
v .610293 2.5 .380595
v .447376 2.5 .380595
f 3 11 17 4
f 6 14 7 2
f 12 13 15 18
f 14 6 5 16
f 12 9 19
f 11 3 1 10
f 12 18 17 11
f 14 16 15 13
f 13 8 7 14
f 11 10 9 12
f 12 19 20
f 8 13 21
f 21 13 20
f 13 12 20
f 16 23 24 15
f 18 33 32 17
f 16 5 22 23
f 4 17 32 31
f 18 15 24 33
f 64 32 33 62
f 67 24 23 66
f 64 63 31 32
f 65 66 23 22
f 67 62 33 24
f 26 28 37 35
f 29 25 34 38
f 28 27 36 37
f 27 30 39 36
f 30 29 38 39
f 36 39 45 42
f 37 36 42 43
f 35 37 43 41
f 38 34 40 44
f 39 38 44 45
f 46 47 48
f 46 48 49
f 46 49 50
f 46 50 51
f 52 51 53
f 46 51 52
f 46 52 47
f 51 50 53
f 50 49 53
f 48 47 53
f 47 52 53
f 49 48 53
f 54 55 56
f 54 56 57
f 54 57 58
f 54 58 59
f 60 59 61
f 54 59 60
f 54 60 55
f 59 58 61
f 58 57 61
f 56 55 61
f 55 60 61
f 57 56 61
f 30 27 62 67
f 25 29 66 65
f 28 26 63 64
f 30 67 66 29
f 28 64 62 27
