# KayKit / Kay Lousberg, CC0. Geometry-only recolored derivative.
v 1 .05 -1
v -1 .05 -1
v -1 .05 1
v 1 .05 1
v .05 .05 -.667157
v -.05 .05 -.667157
v 0 .05 -.575736
v 0 .02 -.644636
v .667157 .05 -.05
v .575736 .05 0
v .667157 .05 .05
v .644636 .02 0
v .05 .05 .667157
v 0 .05 .575736
v -.05 .05 .667157
v 0 .02 .644636
v -.667157 .05 -.05
v -.667157 .05 .05
v -.575736 .05 0
v -.644636 .02 0
v -.05 .05 -1
v .05 .05 -1
v 0 .02 -1
v 1 .05 -.05
v 1 .05 .05
v 1 .02 0
v .05 .05 1
v -.05 .05 1
v 0 .02 1
v -1 .05 .05
v -1 .05 -.05
v -1 .02 0
v 1 -.1 -1
v -1 -.1 -1
v -1 -.1 1
v 1 -.1 1
f 25 27 4
f 28 30 3
f 31 21 2
f 7 19 14 10
f 7 10 12 8
f 8 12 9 5
f 13 11 12 16
f 16 12 10 14
f 19 7 8 20
f 20 8 6 17
f 18 15 16 20
f 20 16 14 19
f 21 6 8 23
f 23 8 5 22
f 11 25 26 12
f 12 26 24 9
f 15 28 29 16
f 16 29 27 13
f 30 18 20 32
f 32 20 17 31
f 22 24 1
f 30 32 35 3
f 27 29 36 4
f 32 34 35
f 28 3 35 29
f 24 26 33 1
f 29 35 36
f 26 25 4 36
f 21 23 34 2
f 23 22 1 33
f 32 31 2 34
f 26 36 33
f 5 9 24 22
f 11 13 27 25
f 15 18 30 28
f 17 6 21 31
f 23 33 34
